<svg width="76" height="76" viewBox="0 0 76 76" fill="none" xmlns="http://www.w3.org/2000/svg">
<path d="M34.5359 6C36.0755 3.33334 39.9245 3.33333 41.4641 6L67.4449 51C68.9845 53.6667 67.06 57 63.9808 57H12.0192C8.94004 57 7.01553 53.6667 8.55514 51L34.5359 6Z" fill="#EB1B1B"/>
<path d="M40.3711 26L39.9844 42.9453H36.2109L35.8359 26H40.3711ZM38.0977 50.2578C37.3867 50.2578 36.7773 50.0078 36.2695 49.5078C35.7695 49.0078 35.5195 48.3984 35.5195 47.6797C35.5195 46.9766 35.7695 46.375 36.2695 45.875C36.7773 45.375 37.3867 45.125 38.0977 45.125C38.793 45.125 39.3945 45.375 39.9023 45.875C40.418 46.375 40.6758 46.9766 40.6758 47.6797C40.6758 48.1562 40.5547 48.5898 40.3125 48.9805C40.0781 49.3711 39.7656 49.6836 39.375 49.918C38.9922 50.1445 38.5664 50.2578 38.0977 50.2578Z" fill="white"/>
</svg>
