<svg width="58" height="58" viewBox="0 0 58 58" fill="none" xmlns="http://www.w3.org/2000/svg">
<path fill-rule="evenodd" clip-rule="evenodd" d="M43.3274 38.0624C43.3274 43.7546 37.6432 49.4501 29.1841 49.4501C20.725 49.4501 15.0409 43.7546 15.0409 38.0624C15.0409 32.1582 18.881 24.8054 23.3945 18.4043C25.4346 15.5112 27.482 12.9911 29.0831 11.1294C30.7146 13.1366 32.8316 15.8688 34.941 18.9523C37.1403 22.1673 39.2795 25.6891 40.8557 29.1167C42.4607 32.6071 43.3274 35.6718 43.3274 38.0624ZM11 38.0624C11 27.0775 21.3674 13.8314 26.446 8.00166C28.0933 6.11066 29.1841 5 29.1841 5C29.1841 5 30.2292 6.15523 31.8182 8.09039C36.8577 14.2274 47.3683 28.2085 47.3683 38.0624C47.3683 46.5834 39.227 53.491 29.1841 53.491C19.1413 53.491 11 46.5834 11 38.0624ZM20.0887 31.266H24.4359C23.6179 33.1328 23.1228 34.9031 23.1228 36.4092C23.1228 38.7217 25.3849 41.3683 29.1841 41.3683V45.4092C23.6048 45.4092 19.0818 41.3797 19.0818 36.4092C19.0818 34.7505 19.4677 33.0035 20.0887 31.266Z" fill="url(#paint0_linear_208_929)"/>
<defs>
<linearGradient id="paint0_linear_208_929" x1="29.1841" y1="5" x2="29.1841" y2="53.491" gradientUnits="userSpaceOnUse">
<stop stop-color="#CED3EA"/>
<stop offset="1" stop-color="#7E83A9"/>
</linearGradient>
</defs>
</svg>
