<svg width="58" height="58" viewBox="0 0 58 58" fill="none" xmlns="http://www.w3.org/2000/svg">
<mask id="path-1-outside-1_208_918" maskUnits="userSpaceOnUse" x="14" y="0" width="31" height="58" fill="black">
<rect fill="white" x="14" width="31" height="58"/>
<path fill-rule="evenodd" clip-rule="evenodd" d="M29.5385 4C25.8212 4 22.8077 7.01347 22.8077 10.7308V31.8846C22.8077 32.3477 22.8545 32.7998 22.9435 33.2366C19.9579 35.2874 18 38.726 18 42.6218C18 48.9058 23.0942 54 29.3782 54C35.6622 54 40.7564 48.9058 40.7564 42.6218C40.7564 38.8479 38.9191 35.5032 36.0902 33.4332C36.2073 32.936 36.2692 32.4175 36.2692 31.8846V10.7308C36.2692 7.01347 33.2558 4 29.5385 4Z"/>
</mask>
<path d="M22.9435 33.2366L25.2084 36.5336L27.3922 35.0334L26.8629 32.4374L22.9435 33.2366ZM36.0902 33.4332L32.1967 32.5164L31.5893 35.0962L33.7282 36.6613L36.0902 33.4332ZM26.8077 10.7308C26.8077 9.22261 28.0303 8 29.5385 8V0C23.612 0 18.8077 4.80434 18.8077 10.7308H26.8077ZM26.8077 31.8846V10.7308H18.8077V31.8846H26.8077ZM26.8629 32.4374C26.8271 32.2621 26.8077 32.0777 26.8077 31.8846H18.8077C18.8077 32.6176 18.8818 33.3375 19.0242 34.0358L26.8629 32.4374ZM22 42.6218C22 40.0991 23.2625 37.8703 25.2084 36.5336L20.6787 29.9395C16.6534 32.7046 14 37.3528 14 42.6218H22ZM29.3782 50C25.3033 50 22 46.6967 22 42.6218H14C14 51.1149 20.8851 58 29.3782 58V50ZM36.7564 42.6218C36.7564 46.6967 33.4531 50 29.3782 50V58C37.8714 58 44.7564 51.1149 44.7564 42.6218H36.7564ZM33.7282 36.6613C35.5719 38.0104 36.7564 40.1775 36.7564 42.6218H44.7564C44.7564 37.5183 42.2664 32.9959 38.4523 30.2051L33.7282 36.6613ZM32.2692 31.8846C32.2692 32.1066 32.2435 32.3175 32.1967 32.5164L39.9837 34.35C40.1711 33.5545 40.2692 32.7284 40.2692 31.8846H32.2692ZM32.2692 10.7308V31.8846H40.2692V10.7308H32.2692ZM29.5385 8C31.0466 8 32.2692 9.22261 32.2692 10.7308H40.2692C40.2692 4.80433 35.4649 0 29.5385 0V8Z" fill="url(#paint0_linear_208_918)" mask="url(#path-1-outside-1_208_918)"/>
<path fill-rule="evenodd" clip-rule="evenodd" d="M29.5385 19.3848C28.1224 19.3848 26.9744 20.5328 26.9744 21.9489V36.9365C24.8923 37.9043 23.4487 40.0144 23.4487 42.4617C23.4487 45.825 26.1752 48.5514 29.5385 48.5514C32.9017 48.5514 35.6282 45.825 35.6282 42.4617C35.6282 40.0144 34.1846 37.9043 32.1026 36.9365V21.9489C32.1026 20.5328 30.9546 19.3848 29.5385 19.3848Z" fill="url(#paint1_linear_208_918)"/>
<defs>
<linearGradient id="paint0_linear_208_918" x1="29.3782" y1="4" x2="29.3782" y2="54" gradientUnits="userSpaceOnUse">
<stop stop-color="#CED3EA"/>
<stop offset="1" stop-color="#7E83A9"/>
</linearGradient>
<linearGradient id="paint1_linear_208_918" x1="29.5385" y1="19.3848" x2="29.5385" y2="48.5514" gradientUnits="userSpaceOnUse">
<stop stop-color="#CED3EA"/>
<stop offset="1" stop-color="#7E83A9"/>
</linearGradient>
</defs>
</svg>
