<svg width="57" height="57" viewBox="0 0 57 57" fill="none" xmlns="http://www.w3.org/2000/svg">
<path fill-rule="evenodd" clip-rule="evenodd" d="M26.266 6.06138V0H30.3069V6.06138H26.266ZM37.6493 8.02892L40.68 2.77961L44.1795 4.80007L41.1489 10.0494L37.6493 8.02892ZM28.2864 42.4297C36.0975 42.4297 42.4297 36.0975 42.4297 28.2864C42.4297 20.4754 36.0975 14.1432 28.2864 14.1432C20.4754 14.1432 14.1432 20.4754 14.1432 28.2864C14.1432 36.0975 20.4754 42.4297 28.2864 42.4297ZM28.2864 46.4706C38.3293 46.4706 46.4706 38.3293 46.4706 28.2864C46.4706 18.2436 38.3293 10.1023 28.2864 10.1023C18.2436 10.1023 10.1023 18.2436 10.1023 28.2864C10.1023 38.3293 18.2436 46.4706 28.2864 46.4706ZM50.5115 26.266H56.5729V30.3069H50.5115V26.266ZM51.7729 12.3934L46.5236 15.4241L48.5441 18.9237L53.7934 15.893L51.7729 12.3934ZM12.3934 4.80007L15.4241 10.0494L18.9237 8.02892L15.893 2.77961L12.3934 4.80007ZM8.0288 18.9237L2.77949 15.893L4.79995 12.3934L10.0493 15.4241L8.0288 18.9237ZM26.266 50.5115V56.5729H30.3069V50.5115H26.266ZM6.06138 26.266H0V30.3069H6.06138V26.266ZM2.77938 40.6799L8.02869 37.6492L10.0491 41.1487L4.79984 44.1794L2.77938 40.6799ZM15.4243 46.5238L12.3936 51.7732L15.8931 53.7936L18.9238 48.5443L15.4243 46.5238ZM40.6799 53.7936L37.6492 48.5443L41.1487 46.5238L44.1794 51.7732L40.6799 53.7936ZM46.5237 41.1487L51.773 44.1794L53.7935 40.6799L48.5442 37.6492L46.5237 41.1487Z" fill="url(#paint0_linear_205_1492)"/>
<path d="M25.001 24.1837H27.1276V29.8704C27.1276 30.5276 26.9711 31.1001 26.6583 31.588C26.3455 32.073 25.9093 32.449 25.3496 32.7159C24.79 32.9799 24.14 33.1119 23.3996 33.1119C22.6505 33.1119 21.9962 32.9799 21.4365 32.7159C20.8769 32.449 20.4421 32.073 20.1322 31.588C19.8222 31.1001 19.6673 30.5276 19.6673 29.8704V24.1837H21.7982V29.6853C21.7982 29.9895 21.8642 30.2607 21.9962 30.4989C22.1311 30.7371 22.319 30.9236 22.5601 31.0585C22.8012 31.1934 23.081 31.2608 23.3996 31.2608C23.7181 31.2608 23.9965 31.1934 24.2347 31.0585C24.4758 30.9236 24.6637 30.7371 24.7986 30.4989C24.9335 30.2607 25.001 29.9895 25.001 29.6853V24.1837ZM30.4649 24.1837L32.4365 30.6409H32.5097L34.4813 24.1837H36.8662L33.8915 33H31.0546L28.08 24.1837H30.4649Z" fill="url(#paint1_linear_205_1492)"/>
<defs>
<linearGradient id="paint0_linear_205_1492" x1="28.2864" y1="0" x2="28.2864" y2="56.5729" gradientUnits="userSpaceOnUse">
<stop stop-color="#EFC977"/>
<stop offset="1" stop-color="#E07256"/>
</linearGradient>
<linearGradient id="paint1_linear_205_1492" x1="29" y1="21" x2="29" y2="36" gradientUnits="userSpaceOnUse">
<stop stop-color="#EFC977"/>
<stop offset="1" stop-color="#E07256"/>
</linearGradient>
</defs>
</svg>
