<svg width="58" height="58" viewBox="0 0 58 58" fill="none" xmlns="http://www.w3.org/2000/svg">
<path fill-rule="evenodd" clip-rule="evenodd" d="M4.42554 38.1965C8.25272 28.3625 17.8125 21.3931 29.0001 21.3931C40.1877 21.3931 49.7475 28.3625 53.5746 38.1965C49.7475 48.0305 40.1877 54.9999 29.0001 54.9999C17.8125 54.9999 8.25272 48.0305 4.42554 38.1965Z" fill="url(#paint0_linear_208_951)"/>
<path d="M29.0001 47.4972C33.9624 47.4972 38.3713 43.7109 38.3713 38.5811C38.3713 33.4514 33.9624 29.665 29.0001 29.665C24.0378 29.665 19.6289 33.4514 19.6289 38.5811C19.6289 43.7109 24.0378 47.4972 29.0001 47.4972Z" stroke="#151617" stroke-width="6"/>
<rect x="28.0898" y="3.53955" width="1.82034" height="12.7424" rx="0.910168" fill="url(#paint1_linear_208_951)"/>
<rect x="44.6482" y="7.53027" width="2.52052" height="13.0227" rx="1.26026" transform="rotate(30 44.6482 7.53027)" fill="url(#paint2_linear_208_951)"/>
<rect x="11.2773" y="8.79102" width="2.52052" height="13.0227" rx="1.26026" transform="rotate(-30 11.2773 8.79102)" fill="url(#paint3_linear_208_951)"/>
<defs>
<linearGradient id="paint0_linear_208_951" x1="29.0001" y1="21.3931" x2="29.0001" y2="54.9999" gradientUnits="userSpaceOnUse">
<stop stop-color="#CED3EA"/>
<stop offset="1" stop-color="#7E83A9"/>
</linearGradient>
<linearGradient id="paint1_linear_208_951" x1="29" y1="3.53955" x2="29" y2="16.2819" gradientUnits="userSpaceOnUse">
<stop stop-color="#CED3EA"/>
<stop offset="1" stop-color="#7E83A9"/>
</linearGradient>
<linearGradient id="paint2_linear_208_951" x1="45.9085" y1="7.53027" x2="45.9085" y2="20.5529" gradientUnits="userSpaceOnUse">
<stop stop-color="#CED3EA"/>
<stop offset="1" stop-color="#7E83A9"/>
</linearGradient>
<linearGradient id="paint3_linear_208_951" x1="12.5376" y1="8.79102" x2="12.5376" y2="21.8137" gradientUnits="userSpaceOnUse">
<stop stop-color="#CED3EA"/>
<stop offset="1" stop-color="#7E83A9"/>
</linearGradient>
</defs>
</svg>
