<svg width="59" height="58" viewBox="0 0 59 58" fill="none" xmlns="http://www.w3.org/2000/svg">
<path d="M40.7224 40H56.7224" stroke="url(#paint0_linear_208_950)" stroke-width="3" stroke-linecap="round" stroke-linejoin="round"/>
<path d="M48.7224 32L56.7224 40L48.7224 48" stroke="url(#paint1_linear_208_950)" stroke-width="3" stroke-linecap="round" stroke-linejoin="round"/>
<path fill-rule="evenodd" clip-rule="evenodd" d="M22.2049 18.0705L22.2049 18.0586L10.7676 18.0584L21.7386 14.0941L21.7374 14.0909C21.9475 14.0379 22.1649 14.019 22.3813 14.0352C22.4098 14.0373 22.4384 14.04 22.4669 14.0434L22.4673 14.0434C22.7644 14.0784 23.05 14.179 23.3036 14.3379L23.3036 14.3379C23.5571 14.4968 23.7722 14.7101 23.9332 14.9622L23.9335 14.9627C24.0945 15.2149 24.1975 15.4997 24.235 15.7965L24.2351 15.7971C24.2726 16.0941 24.2436 16.3957 24.1503 16.6801L24.1502 16.6803C24.0569 16.9648 23.9015 17.225 23.6952 17.442L23.6951 17.4422C23.4889 17.6592 23.2371 17.8276 22.9579 17.9353L22.9574 17.9355C22.9311 17.9456 22.9047 17.9552 22.8781 17.9642C22.6612 18.0375 22.4336 18.0734 22.2049 18.0705ZM2 16.9293V22.0996L22.1633 22.0998C22.9291 22.1084 23.6907 21.9714 24.4074 21.695L24.408 21.6947C24.9535 21.4842 25.4641 21.1963 25.9246 20.8411C26.1698 20.652 26.4008 20.4437 26.6153 20.218L26.6155 20.2178C27.2328 19.568 27.698 18.7891 27.9776 17.9374L27.9776 17.9372C28.2571 17.0856 28.344 16.1824 28.2319 15.2931L28.2318 15.2925C28.1196 14.4032 27.8112 13.5499 27.329 12.7944L27.3287 12.794C26.8463 12.0383 26.2021 11.3994 25.4426 10.9233L25.4426 10.9233C25.1786 10.7579 24.9031 10.6136 24.6185 10.4913C24.0841 10.2616 23.5179 10.1096 22.9371 10.0414L22.9366 10.0413C22.0713 9.93964 21.1945 10.0262 20.3662 10.2948L20.3656 10.293L20.3036 10.3154L20.2963 10.3179L20.2955 10.3182L20.2955 10.3184L2 16.9293ZM2 34.2416V38.3926L28.6818 47.8849L28.6815 47.8857C29.6471 48.271 30.6858 48.4385 31.7235 48.3762C32.1226 48.3523 32.5176 48.2946 32.9047 48.2044C33.5244 48.06 34.1234 47.8321 34.6852 47.5256C35.5978 47.0277 36.3895 46.3345 37.0037 45.4955C37.6178 44.6564 38.0394 43.6922 38.2384 42.6715C38.4374 41.6509 38.4088 40.5988 38.1548 39.5905C37.9008 38.5821 37.4275 37.6422 36.7687 36.8377C36.3632 36.3425 35.8936 35.9061 35.3735 35.5394C35.0488 35.3103 34.7043 35.1084 34.3436 34.9363C33.4067 34.4893 32.3829 34.2542 31.3449 34.2477V34.2417L2 34.2416ZM31.3175 38.2829L13.7492 38.2829L30.2545 44.1548L30.253 44.159C30.6453 44.3037 31.0637 44.3657 31.4816 44.3406C31.926 44.314 32.3591 44.1896 32.7499 43.9764C33.1407 43.7631 33.4797 43.4663 33.7427 43.107C34.0057 42.7477 34.1863 42.3348 34.2715 41.8977C34.3567 41.4607 34.3444 41.0102 34.2357 40.5784C34.1269 40.1465 33.9242 39.7441 33.6421 39.3996C33.36 39.0551 33.0054 38.7771 32.6036 38.5854C32.2023 38.3939 31.7639 38.2932 31.3193 38.2905L31.3175 38.2905L31.3175 38.2897L31.3175 38.2829ZM40.4252 18.5831L40.4234 18.5842L38.4362 15.0656L38.4339 15.0616L38.4379 15.0593C39.5138 14.4521 40.7146 14.0997 41.948 14.0291C42.127 14.0189 42.3059 14.0147 42.4845 14.0163C43.5387 14.0261 44.5827 14.2422 45.5569 14.6543C46.6962 15.1362 47.7096 15.8733 48.5193 16.8087C49.3289 17.7442 49.9131 18.853 50.2268 20.0499C50.5405 21.2467 50.5754 22.4996 50.3288 23.7121C50.0821 24.9245 49.5606 26.0642 48.8042 27.0433C48.1576 27.8804 47.354 28.581 46.4403 29.107C46.2854 29.1962 46.1274 29.2803 45.9664 29.3593C44.8557 29.9039 43.6348 30.1862 42.3979 30.1844V30.1838H2V26.1429H42.4035L42.4036 26.1386C43.0214 26.1394 43.6313 25.9984 44.1861 25.7264C44.7409 25.4543 45.2259 25.0585 45.6037 24.5694C45.9816 24.0804 46.2421 23.5111 46.3653 22.9054C46.4885 22.2997 46.4711 21.6739 46.3144 21.076C46.1576 20.4781 45.8658 19.9242 45.4614 19.4569C45.0569 18.9896 44.5507 18.6215 43.9816 18.3807C43.4125 18.14 42.7957 18.0332 42.1788 18.0684C41.5626 18.1037 40.9627 18.2797 40.4252 18.5831Z" fill="url(#paint2_linear_208_950)"/>
<defs>
<linearGradient id="paint0_linear_208_950" x1="48.7224" y1="40" x2="48.7224" y2="41" gradientUnits="userSpaceOnUse">
<stop stop-color="#CED3EA"/>
<stop offset="1" stop-color="#7E83A9"/>
</linearGradient>
<linearGradient id="paint1_linear_208_950" x1="52.7224" y1="32" x2="52.7224" y2="48" gradientUnits="userSpaceOnUse">
<stop stop-color="#CED3EA"/>
<stop offset="1" stop-color="#7E83A9"/>
</linearGradient>
<linearGradient id="paint2_linear_208_950" x1="26.2455" y1="10" x2="26.2455" y2="48.3889" gradientUnits="userSpaceOnUse">
<stop stop-color="#CED3EA"/>
<stop offset="1" stop-color="#7E83A9"/>
</linearGradient>
</defs>
</svg>
