<svg width="27" height="35" viewBox="0 0 27 35" fill="none" xmlns="http://www.w3.org/2000/svg">
<path fill-rule="evenodd" clip-rule="evenodd" d="M25.1071 9.58973C24.043 10.6446 22.6127 11.2598 21.1062 11.3088C19.5774 11.3586 18.0883 10.8215 16.9498 9.80967C15.8113 8.79789 15.1114 7.38965 14.9963 5.879C14.8832 4.39555 15.3425 2.92597 16.2798 1.7661C16.7811 1.16328 17.4018 0.660939 18.1063 0.294319C17.2682 0.10178 16.395 0 15.4978 0C9.14776 0 4 5.09853 4 11.3879C4 12.7731 4.24972 14.1006 4.707 15.3285C5.25086 14.9409 5.85767 14.6344 6.50933 14.427C6.17907 13.473 6 12.4504 6 11.3879C6 6.8319 9.29234 3.01112 13.6797 2.17153C13.1285 3.36909 12.8846 4.69493 12.9863 6.02914C13.1406 8.05314 14.0784 9.93992 15.6038 11.2955C17.1291 12.6511 19.1242 13.3707 21.1725 13.3041C22.5187 13.2603 23.8195 12.8791 24.9596 12.2107C24.5956 16.3461 21.5137 19.7314 17.4678 20.5739C17.8908 21.1027 18.1804 21.7408 18.2862 22.4386C23.2889 21.2043 26.9957 16.7249 26.9957 11.3879C26.9957 10.0922 26.7772 8.8471 26.3748 7.68667C26.0803 8.40235 25.6467 9.0476 25.1071 9.58973Z" fill="url(#paint0_linear_203_1364)"/>
<path fill-rule="evenodd" clip-rule="evenodd" d="M11.319 24.7798L12.5608 25.6077L10.3493 28.9249H14.1456L10.0574 34.5856L8.84745 33.7117L11.2267 30.4174H7.56055L11.319 24.7798Z" fill="url(#paint1_linear_203_1364)"/>
<path fill-rule="evenodd" clip-rule="evenodd" d="M5.96995 30.1674C2.539 29.268 0 26.0458 0 22.2087C0 17.6752 3.54428 14 7.91636 14C11.5436 14 14.6011 16.5296 15.5376 19.9803C15.6432 19.9734 15.7498 19.97 15.8571 19.97C18.6394 19.97 20.8948 22.3087 20.8948 25.1936C20.8948 28.0786 18.6394 30.4173 15.8571 30.4173C15.7949 30.4173 15.7328 30.4162 15.6711 30.4138V28.9249H15.8972V28.9246C17.7874 28.9021 19.4023 27.291 19.4023 25.1936C19.4023 23.0815 17.7646 21.4624 15.8571 21.4624C15.3183 21.4624 14.8009 21.5917 14.336 21.8247C14.3122 21.3905 14.2486 20.9675 14.1487 20.5594L14.1464 20.5603C13.4392 17.6193 10.8831 15.4925 7.91636 15.4925C4.4191 15.4925 1.49249 18.448 1.49249 22.2087C1.49249 25.2427 3.39735 27.7526 5.96995 28.6093V30.1674Z" fill="url(#paint2_linear_203_1364)"/>
<defs>
<linearGradient id="paint0_linear_203_1364" x1="15.4978" y1="0" x2="15.4978" y2="22.4386" gradientUnits="userSpaceOnUse">
<stop stop-color="#F5BD52"/>
<stop offset="1" stop-color="#F5DA79"/>
</linearGradient>
<linearGradient id="paint1_linear_203_1364" x1="10.8531" y1="24.7798" x2="10.8531" y2="34.5856" gradientUnits="userSpaceOnUse">
<stop stop-color="#F5BD52"/>
<stop offset="1" stop-color="#F5DA79"/>
</linearGradient>
<linearGradient id="paint2_linear_203_1364" x1="10.4474" y1="14" x2="10.4474" y2="30.4173" gradientUnits="userSpaceOnUse">
<stop stop-color="#95B6F6"/>
<stop offset="1" stop-color="#5193DE"/>
</linearGradient>
</defs>
</svg>
