<svg width="28" height="32" viewBox="0 0 28 32" fill="none" xmlns="http://www.w3.org/2000/svg">
<path fill-rule="evenodd" clip-rule="evenodd" d="M24.3818 15.3537C23.8585 14.892 23.2371 14.5347 22.5519 14.3151C23.8597 13.2228 24.7554 11.6846 24.9999 9.95817C24.9255 9.99131 24.8505 10.023 24.7749 10.0533C24.713 10.0781 24.6507 10.102 24.5881 10.1248C23.7735 10.4222 22.8983 10.5557 22.0154 10.5085L21.997 10.5074C20.4291 10.4191 18.9496 9.76685 17.8435 8.67612L17.8357 8.66841C16.8336 7.67681 16.2042 6.38845 16.0407 5.01255C16.0229 4.86264 16.0106 4.71169 16.0039 4.55997C15.9677 3.73109 16.1016 2.91114 16.3897 2.1457C13.8428 2.65796 11.8122 4.47226 11.0188 6.81117C10.3668 6.66669 9.69178 6.58146 9 6.56156C10.0873 2.77577 13.6435 0 17.8627 0C18.8391 0 19.78 0.14865 20.663 0.424069C19.8504 0.759268 19.1643 1.32884 18.694 2.0458C18.6887 2.04522 18.6834 2.04464 18.6782 2.04407C18.2154 2.76749 17.9838 3.61494 18.0215 4.47651C18.0257 4.57401 18.0334 4.67105 18.0445 4.76748C18.1523 5.70983 18.5802 6.59303 19.2641 7.27318L19.2718 7.2809C20.0304 8.03151 21.0474 8.47926 22.1248 8.53691L22.1432 8.53785C22.7922 8.56988 23.4347 8.45895 24.0254 8.21941C24.4096 8.06362 24.772 7.85342 25.1 7.59276L25.1013 7.5944C25.7072 7.11088 26.1764 6.47078 26.4439 5.73752C26.8464 6.74903 27.0673 7.8493 27.0673 9C27.0673 11.48 26.0414 13.7258 24.3818 15.3537Z" fill="url(#paint0_linear_203_1372)"/>
<path fill-rule="evenodd" clip-rule="evenodd" d="M14.6261 18.9294L16.2308 19.9992L13.3731 24.2858H18.2787L12.9959 31.6003L11.4324 30.4712L14.5068 26.2143H9.76953L14.6261 18.9294Z" fill="url(#paint1_linear_203_1372)"/>
<path fill-rule="evenodd" clip-rule="evenodd" d="M7.71429 25.8913C3.28086 24.7291 0 20.5654 0 15.6071C0 9.74898 4.57987 5 10.2294 5C14.9165 5 18.8673 8.2687 20.0774 12.7277C20.214 12.7188 20.3517 12.7143 20.4904 12.7143C24.0855 12.7143 27 15.7364 27 19.4643C27 23.1922 24.0855 26.2143 20.4904 26.2143C20.4099 26.2143 20.3298 26.2127 20.25 26.2097V24.2857H20.5421V24.2854C22.9847 24.2563 25.0714 22.1745 25.0714 19.4643C25.0714 16.735 22.9551 14.6429 20.4904 14.6429C19.7941 14.6429 19.1256 14.8098 18.5247 15.111C18.4941 14.55 18.4118 14.0033 18.2827 13.476L18.2798 13.4772C17.366 9.67683 14.063 6.92857 10.2294 6.92857C5.7103 6.92857 1.92857 10.7476 1.92857 15.6071C1.92857 19.5277 4.39001 22.771 7.71429 23.878V25.8913Z" fill="url(#paint2_linear_203_1372)"/>
<defs>
<linearGradient id="paint0_linear_203_1372" x1="18.0336" y1="0" x2="18.0336" y2="15.3537" gradientUnits="userSpaceOnUse">
<stop stop-color="#F5BD52"/>
<stop offset="1" stop-color="#F5DA79"/>
</linearGradient>
<linearGradient id="paint1_linear_203_1372" x1="14.0241" y1="18.9294" x2="14.0241" y2="31.6003" gradientUnits="userSpaceOnUse">
<stop stop-color="#F5BD52"/>
<stop offset="1" stop-color="#F5DA79"/>
</linearGradient>
<linearGradient id="paint2_linear_203_1372" x1="13.5" y1="5" x2="13.5" y2="26.2143" gradientUnits="userSpaceOnUse">
<stop stop-color="#95B6F6"/>
<stop offset="1" stop-color="#5193DE"/>
</linearGradient>
</defs>
</svg>
