<?xml version="1.0" encoding="utf-8"?>
<!-- Generator: Adobe Illustrator 26.0.1, SVG Export Plug-In . SVG Version: 6.00 Build 0)  -->
<svg version="1.1" id="Layer_1" xmlns="http://www.w3.org/2000/svg" xmlns:xlink="http://www.w3.org/1999/xlink" x="0px" y="0px"
	 viewBox="0 0 32 16" style="enable-background:new 0 0 32 16;" xml:space="preserve">
<style type="text/css">
	.st0{fill-rule:evenodd;clip-rule:evenodd;fill:url(#SVGID_1_);}
</style>
<linearGradient id="SVGID_1_" gradientUnits="userSpaceOnUse" x1="16" y1="4.347826e-02" x2="16" y2="-27.9565" gradientTransform="matrix(1 0 0 -1 0 1.913)">
	<stop  offset="0" style="stop-color:#EFC977"/>
	<stop  offset="1" style="stop-color:#E07256"/>
</linearGradient>
<path class="st0" d="M15,4.9v-3h2v3H15z M20.6,5.8l1.5-2.6l1.7,1l-1.5,2.6L20.6,5.8z M16,22.9c3.9,0,7-3.1,7-7s-3.1-7-7-7
	s-7,3.1-7,7S12.1,22.9,16,22.9z M16,24.9c5,0,9-4,9-9s-4-9-9-9s-9,4-9,9S11,24.9,16,24.9z M27,14.9h3v2h-3V14.9z M27.6,8L25,9.5
	l1,1.7l2.6-1.5L27.6,8z M8.1,4.2l1.5,2.6l1.7-1L9.9,3.2L8.1,4.2z M6,11.2L3.4,9.7l1-1.7L7,9.5L6,11.2z M15,26.9v3h2v-3H15z M5,14.9
	H2v2h3V14.9z M3.4,22L6,20.5l1,1.7l-2.6,1.5L3.4,22z M9.6,24.9l-1.5,2.6l1.7,1l1.5-2.6L9.6,24.9z M22.1,28.5l-1.5-2.6l1.7-1l1.5,2.6
	L22.1,28.5z M25,22.2l2.6,1.5l1-1.7L26,20.5L25,22.2z"/>
</svg>
