<?xml version="1.0" encoding="utf-8"?>
<!-- Generator: Adobe Illustrator 26.0.1, SVG Export Plug-In . SVG Version: 6.00 Build 0)  -->
<svg version="1.1" id="Layer_1" xmlns="http://www.w3.org/2000/svg" xmlns:xlink="http://www.w3.org/1999/xlink" x="0px" y="0px"
	 viewBox="0 0 32 16" style="enable-background:new 0 0 32 16;" xml:space="preserve">
<style type="text/css">
	.st0{fill-rule:evenodd;clip-rule:evenodd;fill:url(#SVGID_1_);}
</style>
<g>
	
		<linearGradient id="SVGID_1_" gradientUnits="userSpaceOnUse" x1="16" y1="29.8696" x2="16" y2="1.8696" gradientTransform="matrix(0.9999 1.434248e-02 -1.434248e-02 0.9999 0.2293 -0.2278)">
		<stop  offset="0" style="stop-color:#EFC977"/>
		<stop  offset="1" style="stop-color:#E07256"/>
	</linearGradient>
	<path class="st0" d="M15.2,4.9l0-3l2,0l0,3L15.2,4.9z M20.8,5.9l1.5-2.6l1.7,1l-1.5,2.6L20.8,5.9z M15.9,22.9c3.9,0.1,7-3,7.1-6.9
		c0.1-3.9-3-7-6.9-7.1c-3.9-0.1-7,3-7.1,6.9S12,22.8,15.9,22.9z M15.9,24.9c5,0.1,9.1-3.9,9.1-8.9s-3.9-9.1-8.9-9.1
		c-5-0.1-9.1,3.9-9.1,8.9C6.9,20.7,10.9,24.8,15.9,24.9z M27,15l3,0l0,2l-3,0L27,15z M27.7,8.2l-2.6,1.5l1,1.7l2.6-1.5L27.7,8.2z
		 M8.3,4.1l1.5,2.6l1.7-1L10,3.2L8.3,4.1z M6,11.1L3.5,9.6l1-1.7l2.6,1.5L6,11.1z M14.8,26.9l0,3l2,0l0-3L14.8,26.9z M5,14.7l-3,0
		l0,2l3,0L5,14.7z M3.3,21.8l2.6-1.5l1,1.7l-2.6,1.5L3.3,21.8z M9.5,24.8L8,27.4l1.7,1l1.5-2.6L9.5,24.8z M22,28.6L20.5,26l1.7-1
		l1.5,2.6L22,28.6z M24.9,22.4l2.6,1.5l1-1.7L26,20.6L24.9,22.4z"/>
</g>
</svg>
